<svg width="244" height="56" viewBox="0 0 244 56" fill="none" xmlns="http://www.w3.org/2000/svg">
<path d="M28.0001 8.63251L9.7609 19.5777L9.7217 19.6001L28.0001 30.5677L46.2785 19.6001L28.0001 8.63251ZM27.9357 33.6001C27.7042 33.5891 27.4791 33.5208 27.2805 33.4013L8.4001 22.0725V37.8001C8.4001 38.914 8.8426 39.9823 9.63025 40.77C10.4179 41.5576 11.4862 42.0001 12.6001 42.0001H32.2001C31.5869 42.8121 31.1501 43.7641 30.9401 44.8001H12.6001C10.7436 44.8001 8.96311 44.0626 7.65035 42.7499C6.3376 41.4371 5.6001 39.6566 5.6001 37.8001V21.9801C5.59961 21.0126 5.84979 20.0615 6.32627 19.2194C6.80275 18.3773 7.48926 17.6731 8.3189 17.1753L27.2525 5.81571C27.4716 5.67744 27.7247 5.60267 27.9837 5.5997C28.2428 5.59674 28.4975 5.6657 28.7197 5.79891L48.1181 17.4385C48.4916 17.6623 48.8007 17.9791 49.0153 18.3579C49.2299 18.7367 49.3428 19.1647 49.3428 19.6001C49.3428 20.0355 49.2299 20.4635 49.0153 20.8423C48.8007 21.2211 48.4916 21.5379 48.1181 21.7617L42.2605 25.2785C41.135 25.4322 40.0525 25.8127 39.0783 26.397C38.1042 26.9813 37.2588 27.7572 36.5933 28.6777L28.7225 33.4013C28.4862 33.5426 28.2134 33.6108 27.9385 33.5973L27.9357 33.6001ZM49.0001 33.6001C49.0001 35.0853 48.4101 36.5097 47.3599 37.5599C46.3097 38.6101 44.8853 39.2001 43.4001 39.2001C41.9149 39.2001 40.4905 38.6101 39.4403 37.5599C38.3901 36.5097 37.8001 35.0853 37.8001 33.6001C37.8001 32.1149 38.3901 30.6905 39.4403 29.6403C40.4905 28.5901 41.9149 28.0001 43.4001 28.0001C44.8853 28.0001 46.3097 28.5901 47.3599 29.6403C48.4101 30.6905 49.0001 32.1149 49.0001 33.6001ZM53.2001 46.2001C53.2001 49.6861 50.4001 53.2001 43.4001 53.2001C36.4001 53.2001 33.6001 49.7001 33.6001 46.2001C33.6001 45.0862 34.0426 44.0179 34.8302 43.2303C35.6179 42.4426 36.6862 42.0001 37.8001 42.0001H49.0001C50.114 42.0001 51.1823 42.4426 51.9699 43.2303C52.7576 44.0179 53.2001 45.0862 53.2001 46.2001Z" fill="white"/>
<path d="M95.7461 41H84.7246V39.752C85.123 39.7402 85.6328 39.6992 86.2539 39.6289C86.8867 39.5586 87.3203 39.459 87.5547 39.3301C87.918 39.1074 88.1816 38.8555 88.3457 38.5742C88.5215 38.2812 88.6094 37.918 88.6094 37.4844V19.3438H88.3457L79.8379 40.5957H78.959L70.8555 18.9043H70.627V33.793C70.627 35.2344 70.7148 36.3301 70.8906 37.0801C71.0781 37.8301 71.3594 38.3691 71.7344 38.6973C71.9922 38.9434 72.5254 39.1777 73.334 39.4004C74.1426 39.623 74.6699 39.7402 74.916 39.752V41H64.8438V39.752C65.3711 39.7051 65.9219 39.6172 66.4961 39.4883C67.082 39.3594 67.5332 39.166 67.8496 38.9082C68.2598 38.5801 68.541 38.0762 68.6934 37.3965C68.8457 36.7168 68.9219 35.5801 68.9219 33.9863V21.2246C68.9219 20.4863 68.834 19.8828 68.6582 19.4141C68.4824 18.9453 68.2305 18.5645 67.9023 18.2715C67.5391 17.9551 67.0938 17.7207 66.5664 17.5684C66.0391 17.416 65.5176 17.3281 65.002 17.3047V16.0566H73.5098L80.6465 34.7598L86.7461 19.1152C86.9688 18.541 87.1562 17.9434 87.3086 17.3223C87.4727 16.6895 87.5605 16.2676 87.5723 16.0566H95.7109V17.3047C95.3828 17.3164 94.9609 17.3691 94.4453 17.4629C93.9414 17.5566 93.5723 17.6445 93.3379 17.7266C92.9395 17.8672 92.6699 18.1016 92.5293 18.4297C92.3887 18.7578 92.3184 19.1152 92.3184 19.502V37.4844C92.3184 37.8945 92.3887 38.2402 92.5293 38.5215C92.6699 38.8027 92.9395 39.0488 93.3379 39.2598C93.5488 39.377 93.9238 39.4883 94.4629 39.5938C95.002 39.6875 95.4297 39.7402 95.7461 39.752V41ZM113.082 40.6836C112.531 40.8828 112.045 41.041 111.623 41.1582C111.213 41.2871 110.744 41.3516 110.217 41.3516C109.303 41.3516 108.57 41.1406 108.02 40.7188C107.48 40.2852 107.135 39.6582 106.982 38.8379H106.877C106.115 39.6816 105.295 40.3262 104.416 40.7715C103.549 41.2168 102.5 41.4395 101.27 41.4395C99.9688 41.4395 98.8965 41.041 98.0527 40.2441C97.2207 39.4473 96.8047 38.4043 96.8047 37.1152C96.8047 36.4473 96.8984 35.8496 97.0859 35.3223C97.2734 34.7949 97.5547 34.3203 97.9297 33.8984C98.2227 33.5469 98.6094 33.2363 99.0898 32.9668C99.5703 32.6855 100.021 32.4629 100.443 32.2988C100.971 32.0996 102.037 31.7305 103.643 31.1914C105.26 30.6523 106.35 30.2305 106.912 29.9258V28.1855C106.912 28.0332 106.877 27.7402 106.807 27.3066C106.748 26.873 106.613 26.4629 106.402 26.0762C106.168 25.6426 105.834 25.2676 105.4 24.9512C104.979 24.623 104.375 24.459 103.59 24.459C103.051 24.459 102.547 24.5527 102.078 24.7402C101.621 24.916 101.299 25.1035 101.111 25.3027C101.111 25.5371 101.164 25.8828 101.27 26.3398C101.387 26.7969 101.445 27.2188 101.445 27.6055C101.445 28.0156 101.258 28.3906 100.883 28.7305C100.52 29.0703 100.01 29.2402 99.3535 29.2402C98.7676 29.2402 98.334 29.0352 98.0527 28.625C97.7832 28.2031 97.6484 27.7344 97.6484 27.2188C97.6484 26.6797 97.8359 26.1641 98.2109 25.6719C98.5977 25.1797 99.0957 24.7402 99.7051 24.3535C100.232 24.0254 100.871 23.75 101.621 23.5273C102.371 23.293 103.104 23.1758 103.818 23.1758C104.803 23.1758 105.658 23.2461 106.385 23.3867C107.123 23.5156 107.791 23.8027 108.389 24.248C108.986 24.6816 109.438 25.2734 109.742 26.0234C110.059 26.7617 110.217 27.7168 110.217 28.8887C110.217 30.5645 110.199 32.0527 110.164 33.3535C110.129 34.6426 110.111 36.0547 110.111 37.5898C110.111 38.0469 110.188 38.4102 110.34 38.6797C110.504 38.9492 110.75 39.1777 111.078 39.3652C111.254 39.4707 111.529 39.5293 111.904 39.541C112.291 39.5527 112.684 39.5586 113.082 39.5586V40.6836ZM106.947 31.4023C105.951 31.6953 105.078 31.9824 104.328 32.2637C103.578 32.5449 102.881 32.8965 102.236 33.3184C101.65 33.7168 101.188 34.1914 100.848 34.7422C100.508 35.2812 100.338 35.9258 100.338 36.6758C100.338 37.6484 100.59 38.3633 101.094 38.8203C101.609 39.2773 102.26 39.5059 103.045 39.5059C103.877 39.5059 104.609 39.3066 105.242 38.9082C105.875 38.498 106.408 38.0176 106.842 37.4668L106.947 31.4023ZM121.225 41H112.84V39.8398C113.109 39.8164 113.385 39.793 113.666 39.7695C113.959 39.7461 114.211 39.6992 114.422 39.6289C114.75 39.5234 114.99 39.3418 115.143 39.084C115.307 38.8145 115.389 38.4688 115.389 38.0469V27.3418C115.389 26.9668 115.301 26.627 115.125 26.3223C114.961 26.0059 114.727 25.7422 114.422 25.5312C114.199 25.3906 113.877 25.2734 113.455 25.1797C113.033 25.0742 112.646 25.0098 112.295 24.9863V23.8438L118.412 23.457L118.658 23.7031V37.8359C118.658 38.2461 118.734 38.5859 118.887 38.8555C119.051 39.125 119.303 39.3242 119.643 39.4531C119.9 39.5586 120.152 39.6465 120.398 39.7168C120.645 39.7754 120.92 39.8164 121.225 39.8398V41ZM119.01 16.6191C119.01 17.2871 118.787 17.873 118.342 18.377C117.908 18.8691 117.369 19.1152 116.725 19.1152C116.127 19.1152 115.605 18.8809 115.16 18.4121C114.727 17.9316 114.51 17.3867 114.51 16.7773C114.51 16.1328 114.727 15.5703 115.16 15.0898C115.605 14.6094 116.127 14.3691 116.725 14.3691C117.393 14.3691 117.938 14.5977 118.359 15.0547C118.793 15.5 119.01 16.0215 119.01 16.6191ZM129.473 41H121.018V39.8398C121.287 39.8164 121.574 39.793 121.879 39.7695C122.184 39.7344 122.436 39.6875 122.635 39.6289C122.963 39.5234 123.209 39.3418 123.373 39.084C123.537 38.8145 123.619 38.4688 123.619 38.0469V17.9727C123.619 17.5508 123.525 17.1582 123.338 16.7949C123.162 16.4199 122.928 16.127 122.635 15.916C122.424 15.7754 122.037 15.6465 121.475 15.5293C120.912 15.4121 120.461 15.3418 120.121 15.3184V14.1934L126.643 13.7891L126.889 14.0527V37.8359C126.889 38.2461 126.965 38.5859 127.117 38.8555C127.27 39.1133 127.516 39.3125 127.855 39.4531C128.113 39.5703 128.365 39.6582 128.611 39.7168C128.869 39.7754 129.156 39.8164 129.473 39.8398V41ZM155.334 17.3047C155.006 17.3164 154.525 17.3867 153.893 17.5156C153.26 17.6445 152.744 17.8379 152.346 18.0957C151.947 18.3652 151.672 18.9219 151.52 19.7656C151.367 20.6094 151.291 21.6406 151.291 22.8594V33.7051C151.291 35.0879 151.004 36.2891 150.43 37.3086C149.855 38.3281 149.1 39.166 148.162 39.8223C147.236 40.4551 146.258 40.9062 145.227 41.1758C144.207 41.457 143.229 41.5977 142.291 41.5977C140.791 41.5977 139.455 41.3984 138.283 41C137.111 40.6133 136.127 40.0859 135.33 39.418C134.545 38.75 133.953 37.9883 133.555 37.1328C133.156 36.2656 132.957 35.3633 132.957 34.4258V19.6777C132.957 19.2676 132.887 18.9277 132.746 18.6582C132.617 18.377 132.348 18.1191 131.938 17.8848C131.645 17.7207 131.27 17.5918 130.812 17.498C130.355 17.3926 129.98 17.3281 129.688 17.3047V16.0566H140.076V17.3047C139.748 17.3164 139.332 17.3691 138.828 17.4629C138.336 17.5566 137.973 17.6445 137.738 17.7266C137.34 17.8672 137.07 18.1016 136.93 18.4297C136.801 18.7578 136.736 19.1152 136.736 19.502V33.2832C136.736 33.9512 136.807 34.6543 136.947 35.3926C137.1 36.1191 137.393 36.7988 137.826 37.4316C138.283 38.0762 138.904 38.6035 139.689 39.0137C140.475 39.4238 141.553 39.6289 142.924 39.6289C144.213 39.6289 145.291 39.4238 146.158 39.0137C147.037 38.6035 147.729 38.0645 148.232 37.3965C148.713 36.7637 149.053 36.1016 149.252 35.4102C149.451 34.7188 149.551 34.0215 149.551 33.3184V23.0879C149.551 21.7871 149.457 20.7266 149.27 19.9062C149.082 19.0742 148.807 18.5293 148.443 18.2715C148.033 17.9785 147.471 17.75 146.756 17.5859C146.053 17.4219 145.514 17.3281 145.139 17.3047V16.0566H155.334V17.3047ZM180.949 17.3047C180.621 17.3164 180.117 17.4102 179.438 17.5859C178.758 17.7617 178.271 17.9434 177.979 18.1309C177.557 18.4238 177.27 18.9863 177.117 19.8184C176.977 20.6504 176.906 21.7051 176.906 22.9824V41.2461H175.377L160.26 20.8379V33.7051C160.26 35.1465 160.348 36.2539 160.523 37.0273C160.711 37.8008 160.992 38.3516 161.367 38.6797C161.637 38.9375 162.193 39.1777 163.037 39.4004C163.881 39.623 164.438 39.7402 164.707 39.752V41H154.477V39.752C154.793 39.7285 155.326 39.6172 156.076 39.418C156.826 39.207 157.295 39.0195 157.482 38.8555C157.893 38.5273 158.174 38.0293 158.326 37.3613C158.479 36.6816 158.555 35.5273 158.555 33.8984V21.6113C158.555 21.0723 158.461 20.5332 158.273 19.9941C158.086 19.4551 157.834 19.0391 157.518 18.7461C157.096 18.3594 156.521 18.0312 155.795 17.7617C155.08 17.4805 154.5 17.3281 154.055 17.3047V16.0566H161.174L175.201 35.0762V23.2109C175.201 21.7578 175.107 20.6445 174.92 19.8711C174.732 19.0859 174.463 18.5645 174.111 18.3066C173.783 18.084 173.244 17.8672 172.494 17.6562C171.756 17.4453 171.193 17.3281 170.807 17.3047V16.0566H180.949V17.3047ZM206.582 17.3047C206.254 17.3164 205.75 17.4102 205.07 17.5859C204.391 17.7617 203.904 17.9434 203.611 18.1309C203.189 18.4238 202.902 18.9863 202.75 19.8184C202.609 20.6504 202.539 21.7051 202.539 22.9824V41.2461H201.01L185.893 20.8379V33.7051C185.893 35.1465 185.98 36.2539 186.156 37.0273C186.344 37.8008 186.625 38.3516 187 38.6797C187.27 38.9375 187.826 39.1777 188.67 39.4004C189.514 39.623 190.07 39.7402 190.34 39.752V41H180.109V39.752C180.426 39.7285 180.959 39.6172 181.709 39.418C182.459 39.207 182.928 39.0195 183.115 38.8555C183.525 38.5273 183.807 38.0293 183.959 37.3613C184.111 36.6816 184.188 35.5273 184.188 33.8984V21.6113C184.188 21.0723 184.094 20.5332 183.906 19.9941C183.719 19.4551 183.467 19.0391 183.15 18.7461C182.729 18.3594 182.154 18.0312 181.428 17.7617C180.713 17.4805 180.133 17.3281 179.688 17.3047V16.0566H186.807L200.834 35.0762V23.2109C200.834 21.7578 200.74 20.6445 200.553 19.8711C200.365 19.0859 200.096 18.5645 199.744 18.3066C199.416 18.084 198.877 17.8672 198.127 17.6562C197.389 17.4453 196.826 17.3281 196.439 17.3047V16.0566H206.582V17.3047Z" fill="white"/>
</svg>
